HIERARCHY
ROOT ui
{
	 OFFSET 0 0 0
	 CHANNELS 3 XPosition YPosition Z Position
	 EndSite
	 {
	 OFFSET 0 -1 0
	 }
}
ROOT li
{
	 OFFSET 0 0 0
	 CHANNELS 3 XPosition YPosition Z Position
	 EndSite
	 {
	 OFFSET 0 -1 0
	 }
}
ROOT ul
{
	 OFFSET 0 0 0
	 CHANNELS 3 XPosition YPosition Z Position
	 EndSite
	 {
	 OFFSET 0 -1 0
	 }
}
ROOT ll
{
	 OFFSET 0 0 0
	 CHANNELS 3 XPosition YPosition Z Position
	 EndSite
	 {
	 OFFSET 0 -1 0
	 }
}
ROOT tt
{
	 OFFSET 0 0 0
	 CHANNELS 3 XPosition YPosition Z Position
	 EndSite
	 {
	 OFFSET 0 -1 0
	 }
}
ROOT tb
{
	 OFFSET 0 0 0
	 CHANNELS 3 XPosition YPosition Z Position
	 EndSite
	 {
	 OFFSET 0 -1 0
	 }
}
ROOT td
{
	 OFFSET 0 0 0
	 CHANNELS 3 XPosition YPosition Z Position
	 EndSite
	 {
	 OFFSET 0 -1 0
	 }
}
ROOT v
{
	 OFFSET 0 0 0
	 CHANNELS 3 XPosition YPosition Z Position
	 EndSite
	 {
	 OFFSET 0 -1 0
	 }
}
ROOT bn
{
	 OFFSET 0 0 0
	 CHANNELS 3 XPosition YPosition Z Position
	 EndSite
	 {
	 OFFSET 0 -1 0
	 }
}
MOTION
Frames: 13
Frame Time: 0.002
-0.003423532962799072	-7.433130145072937E-4	0		0.5214265747070312	-2.402009033203125	0		-1.0945028076171874	0.11896937561035156	0		-0.8199492797851563	-2.694311767578125	0		1.383303955078125	-0.666833251953125	0		3.274197021484375	-0.31191482543945315	0		4.70854833984375	-0.14835845947265625	0		5.6160654296875	0.17515567016601563	0		-0.3044310302734375	5.8878466796875	0		
0.021001989364624024	0.006872536182403565	0		0.5226508178710938	-2.399243408203125	0		-1.08514111328125	0.11777974700927735	0		-0.805801513671875	-2.69856005859375	0		1.38262109375	-0.6671093139648437	0		3.25359521484375	-0.30515753173828125	0		4.69095703125	-0.14172190856933595	0		5.6269267578125	0.14802250671386719	0		-0.3036966247558594	5.8846767578125	0		
0.010338573455810547	0.00477048921585083	0		0.5009159240722656	-2.3902900390625	0		-1.0767247314453126	0.12459725952148437	0		-0.7906469116210938	-2.700817626953125	0		1.391017333984375	-0.6564571533203125	0		3.284885009765625	-0.3108167724609375	0		4.698283203125	-0.14428273010253906	0		5.61932763671875	0.148935546875	0		-0.28687811279296876	5.893376953125	0		
0.02770181655883789	0.0054466938972473145	0		0.5500388793945312	-2.399907470703125	0		-1.0873526611328126	0.12557398986816407	0		-0.7684616088867188	-2.700129638671875	0		1.384264404296875	-0.6646749877929687	0		3.2773837890625	-0.29115185546875	0		4.69762890625	-0.14476727294921876	0		5.62888427734375	0.15991326904296874	0		-0.25507110595703125	5.90095751953125	0		
-0.006920333862304688	0.006559226989746094	0		0.5113211669921875	-2.391795654296875	0		-1.097033935546875	0.11855178833007812	0		-0.7822158203125	-2.6941396484375	0		1.3805654296875	-0.6679044799804688	0		3.256552734375	-0.31336126708984374	0		4.70899560546875	-0.14433193969726563	0		5.61127734375	0.15070608520507814	0		-0.304465087890625	5.88421240234375	0		
-0.003574418067932129	0.0013727400302886964	0		0.5464689331054687	-2.403279541015625	0		-1.0976395263671874	0.11846526336669921	0		-0.8130677490234375	-2.70299609375	0		1.37991162109375	-0.66814306640625	0		3.2599619140625	-0.3087484130859375	0		4.69837451171875	-0.1446917724609375	0		5.6179638671875	0.14970933532714845	0		-0.30471670532226564	5.8840771484375	0		
-0.007187633037567138	-0.0017422629594802857	0		0.4917835693359375	-2.398000244140625	0		-1.0882294921875	0.1173055191040039	0		-0.7988483276367188	-2.707214111328125	0		1.3792841796875	-0.6683643188476562	0		3.275246337890625	-0.32221316528320315	0		4.69271923828125	-0.15206527709960938	0		5.61040283203125	0.14905026245117187	0		-0.289868896484375	5.8948291015625	0		
0.017320899963378905	0.005921028137207031	0		0.5221087646484375	-2.3964150390625	0		-1.083755859375	0.12019723510742188	0		-0.8084714965820312	-2.697220947265625	0		1.3817144775390624	-0.6655923461914063	0		3.2628984375	-0.2954206237792969	0		4.70126220703125	-0.1395275421142578	0		5.61711669921875	0.14469720458984375	0		-0.2901005249023437	5.89471875	0		
-2.759749889373779E-4	-0.0030473699569702147	0		0.5194463500976563	-2.398536865234375	0		-1.0952623291015624	0.12123460388183593	0		-0.7272711181640625	-2.713985107421875	0		1.44613916015625	-0.6683263549804688	0		3.26318359375	-0.31670901489257813	0		4.71073291015625	-0.1399673614501953	0		5.6125126953125	0.15966566467285156	0		-0.2562674560546875	5.90033349609375	0		
0.021276371002197265	6.676520109176636E-4	0		0.5348756713867188	-2.39579541015625	0		-1.0957373046875	0.12118966674804688	0		-0.8226909790039062	-2.691239013671875	0		1.3806458740234375	-0.665939208984375	0		3.28673779296875	-0.31116738891601564	0		4.7061943359375	-0.14625605773925782	0		5.62353125	0.14669374084472656	0		-0.2705588989257813	5.8893681640625	0		
-0.010117381095886231	0.005848955154418945	0		0.5053421325683594	-2.39465380859375	0		-1.1001951904296876	0.11818917846679687	0		-0.7533267822265625	-2.700885009765625	0		1.4421251220703124	-0.6726138305664062	0		3.25325341796875	-0.3151123657226563	0		4.70575048828125	-0.1465462646484375	0		5.61897607421875	0.15832640075683593	0		-0.30578753662109376	5.8835966796875	0		
0.016418752670288087	-0.0024518918991088866	0		0.5157994384765625	-2.400837890625	0		-1.0905936279296875	0.11707823944091797	0		-0.8039053955078125	-2.709493408203125	0		1.3797576904296875	-0.6662078247070312	0		3.256889404296875	-0.3103471374511719	0		4.71028125	-0.15484765625	0		5.62292578125	0.14562210083007812	0		-0.290850830078125	5.89441064453125	0		
0.005119082927703858	0.0035860869884490965	0		0.4944381103515625	-2.39173193359375	0		-1.081881103515625	0.12398394012451172	0		-0.761332275390625	-2.706891845703125	0		1.3824158935546875	-0.6623407592773437	0		3.27044775390625	-0.3196434631347656	0		4.69298486328125	-0.14792996215820312	0		5.62263818359375	0.13652352905273438	0		-0.28900390625	5.89234765625	0		
